# xmcd
#
# Track frame offsets: 
#        150
#        45421
#        180323
#
# Disc length: 3026 seconds
#
# Revision: 1
# Processed by: cddbd v1.5.2PL0 Copyright (c) Steve Scherf et al.
# Submitted via: ExactAudioCopy v1.0b3
#
DISCID=170bd003
DTITLE=Chick Corea Trio - Trilogy (Diac 3)
DYEAR=2013
DGENRE=Jazz
TTITLE0=Homage
TTITLE1=Piano sonata - The moon
TTITLE2=Someday my prince will come
EXTD=
EXTT0=
EXTT1=
EXTT2=
PLAYORDER=
